<svg xmlns="http://www.w3.org/2000/svg" viewBox="0 0 300 300" width="300" height="300">
  <!-- Sweeping gold vine -->
  <path d="M0 300 Q100 200 200 100 Q250 50 300 0" stroke="#c9a84c" stroke-width="2" fill="none" opacity="0.4"/>
  <path d="M0 300 Q80 230 160 160 Q230 90 300 0" stroke="#e8d5a3" stroke-width="1" fill="none" opacity="0.3"/>

  <!-- Green stems branching off -->
  <path d="M30 270 Q15 240 20 210" stroke="#6a8e5a" stroke-width="1.5" fill="none" opacity="0.6"/>
  <path d="M75 220 Q55 195 65 170" stroke="#6a8e5a" stroke-width="1.5" fill="none" opacity="0.6"/>
  <path d="M130 160 Q110 140 120 115" stroke="#6a8e5a" stroke-width="1.5" fill="none" opacity="0.6"/>
  <path d="M185 105 Q165 85 175 60" stroke="#6a8e5a" stroke-width="1.5" fill="none" opacity="0.6"/>
  <path d="M240 52 Q220 32 228 10" stroke="#6a8e5a" stroke-width="1.5" fill="none" opacity="0.6"/>

  <!-- Leaves -->
  <ellipse cx="18" cy="260" rx="14" ry="5" fill="#7a9e6a" opacity="0.55" transform="rotate(-75 18 260)"/>
  <ellipse cx="35" cy="245" rx="12" ry="4" fill="#8aae7a" opacity="0.5" transform="rotate(-20 35 245)"/>
  <ellipse cx="58" cy="210" rx="14" ry="5" fill="#7a9e6a" opacity="0.55" transform="rotate(-65 58 210)"/>
  <ellipse cx="75" cy="196" rx="12" ry="4" fill="#8aae7a" opacity="0.5" transform="rotate(-20 75 196)"/>
  <ellipse cx="112" cy="148" rx="14" ry="5" fill="#7a9e6a" opacity="0.55" transform="rotate(-55 112 148)"/>
  <ellipse cx="132" cy="136" rx="12" ry="4" fill="#8aae7a" opacity="0.5" transform="rotate(-20 132 136)"/>
  <ellipse cx="168" cy="93" rx="14" ry="5" fill="#7a9e6a" opacity="0.55" transform="rotate(-45 168 93)"/>
  <ellipse cx="188" cy="80" rx="12" ry="4" fill="#8aae7a" opacity="0.5" transform="rotate(-15 188 80)"/>
  <ellipse cx="220" cy="40" rx="14" ry="5" fill="#7a9e6a" opacity="0.55" transform="rotate(-35 220 40)"/>
  <ellipse cx="242" cy="28" rx="12" ry="4" fill="#8aae7a" opacity="0.5" transform="rotate(-10 242 28)"/>

  <!-- PEONY A – large, ivory-cream, bottom corner -->
  <g transform="translate(28,278)">
    <!-- Outermost petals -->
    <ellipse cx="0" cy="-28" rx="11" ry="16" fill="#f0e8d0" opacity="0.7"/>
    <ellipse cx="0" cy="28" rx="11" ry="16" fill="#f0e8d0" opacity="0.7"/>
    <ellipse cx="-28" cy="0" rx="16" ry="11" fill="#f0e8d0" opacity="0.7"/>
    <ellipse cx="28" cy="0" rx="16" ry="11" fill="#f0e8d0" opacity="0.7"/>
    <ellipse cx="-20" cy="-20" rx="11" ry="15" fill="#f0e8d0" opacity="0.6" transform="rotate(-45 -20 -20)"/>
    <ellipse cx="20" cy="-20" rx="11" ry="15" fill="#f0e8d0" opacity="0.6" transform="rotate(45 20 -20)"/>
    <ellipse cx="-20" cy="20" rx="11" ry="15" fill="#f0e8d0" opacity="0.6" transform="rotate(45 -20 20)"/>
    <ellipse cx="20" cy="20" rx="11" ry="15" fill="#f0e8d0" opacity="0.6" transform="rotate(-45 20 20)"/>
    <!-- Mid petals -->
    <ellipse cx="0" cy="-18" rx="9" ry="13" fill="#e8d5b0" opacity="0.75"/>
    <ellipse cx="0" cy="18" rx="9" ry="13" fill="#e8d5b0" opacity="0.75"/>
    <ellipse cx="-18" cy="0" rx="13" ry="9" fill="#e8d5b0" opacity="0.75"/>
    <ellipse cx="18" cy="0" rx="13" ry="9" fill="#e8d5b0" opacity="0.75"/>
    <!-- Inner -->
    <circle cx="0" cy="0" r="16" fill="#e8c870"/>
    <circle cx="0" cy="0" r="11" fill="#d4b440"/>
    <circle cx="0" cy="0" r="7" fill="#c9a84c"/>
    <circle cx="0" cy="0" r="4" fill="#e8d5a3"/>
  </g>

  <!-- ROSE D – medium, deep rose, mid -->
  <g transform="translate(152,148)">
    <ellipse cx="0" cy="-18" rx="8" ry="12" fill="#8a2040" opacity="0.75"/>
    <ellipse cx="0" cy="18" rx="8" ry="12" fill="#8a2040" opacity="0.75"/>
    <ellipse cx="-18" cy="0" rx="12" ry="8" fill="#8a2040" opacity="0.75"/>
    <ellipse cx="18" cy="0" rx="12" ry="8" fill="#8a2040" opacity="0.75"/>
    <ellipse cx="-13" cy="-13" rx="8" ry="11" fill="#a02848" opacity="0.65" transform="rotate(-45 -13 -13)"/>
    <ellipse cx="13" cy="-13" rx="8" ry="11" fill="#a02848" opacity="0.65" transform="rotate(45 13 -13)"/>
    <ellipse cx="-13" cy="13" rx="8" ry="11" fill="#a02848" opacity="0.65" transform="rotate(45 -13 13)"/>
    <ellipse cx="13" cy="13" rx="8" ry="11" fill="#a02848" opacity="0.65" transform="rotate(-45 13 13)"/>
    <circle cx="0" cy="0" r="14" fill="#b03050"/>
    <circle cx="0" cy="0" r="9" fill="#c04060"/>
    <circle cx="0" cy="0" r="5" fill="#d87080"/>
    <circle cx="0" cy="0" r="3" fill="#f0b0b8"/>
  </g>

  <!-- PEONY B – large, blush, top-right corner -->
  <g transform="translate(272,28)">
    <ellipse cx="0" cy="-28" rx="11" ry="16" fill="#f5d5e0" opacity="0.7"/>
    <ellipse cx="0" cy="28" rx="11" ry="16" fill="#f5d5e0" opacity="0.7"/>
    <ellipse cx="-28" cy="0" rx="16" ry="11" fill="#f5d5e0" opacity="0.7"/>
    <ellipse cx="28" cy="0" rx="16" ry="11" fill="#f5d5e0" opacity="0.7"/>
    <ellipse cx="-20" cy="-20" rx="11" ry="15" fill="#f5d5e0" opacity="0.6" transform="rotate(-45 -20 -20)"/>
    <ellipse cx="20" cy="-20" rx="11" ry="15" fill="#f5d5e0" opacity="0.6" transform="rotate(45 20 -20)"/>
    <ellipse cx="-20" cy="20" rx="11" ry="15" fill="#f5d5e0" opacity="0.6" transform="rotate(45 -20 20)"/>
    <ellipse cx="20" cy="20" rx="11" ry="15" fill="#f5d5e0" opacity="0.6" transform="rotate(-45 20 20)"/>
    <ellipse cx="0" cy="-18" rx="9" ry="13" fill="#eec0d0" opacity="0.75"/>
    <ellipse cx="0" cy="18" rx="9" ry="13" fill="#eec0d0" opacity="0.75"/>
    <ellipse cx="-18" cy="0" rx="13" ry="9" fill="#eec0d0" opacity="0.75"/>
    <ellipse cx="18" cy="0" rx="13" ry="9" fill="#eec0d0" opacity="0.75"/>
    <circle cx="0" cy="0" r="16" fill="#e8a0b8"/>
    <circle cx="0" cy="0" r="11" fill="#f0b8c8"/>
    <circle cx="0" cy="0" r="7" fill="#f8d0d8"/>
    <circle cx="0" cy="0" r="4" fill="#fce8ec"/>
  </g>

  <!-- Mini flowers along diagonal -->
  <g transform="translate(78,222)">
    <circle cx="0" cy="0" r="8" fill="#c97b8a" opacity="0.7"/>
    <circle cx="0" cy="0" r="4" fill="#f0c0c5" opacity="0.65"/>
    <ellipse cx="0" cy="-7" rx="3" ry="5" fill="#c97b8a" opacity="0.5"/>
    <ellipse cx="0" cy="7" rx="3" ry="5" fill="#c97b8a" opacity="0.5"/>
    <ellipse cx="-7" cy="0" rx="5" ry="3" fill="#c97b8a" opacity="0.5"/>
    <ellipse cx="7" cy="0" rx="5" ry="3" fill="#c97b8a" opacity="0.5"/>
  </g>
  <g transform="translate(112,185)">
    <circle cx="0" cy="0" r="7" fill="#c9a84c" opacity="0.65"/>
    <circle cx="0" cy="0" r="3.5" fill="#f5eacc" opacity="0.6"/>
  </g>
  <g transform="translate(195,100)">
    <circle cx="0" cy="0" r="8" fill="#e8a0b0" opacity="0.65"/>
    <circle cx="0" cy="0" r="4" fill="#fce4e8" opacity="0.6"/>
    <ellipse cx="0" cy="-7" rx="3" ry="5" fill="#e8a0b0" opacity="0.45"/>
    <ellipse cx="0" cy="7" rx="3" ry="5" fill="#e8a0b0" opacity="0.45"/>
    <ellipse cx="-7" cy="0" rx="5" ry="3" fill="#e8a0b0" opacity="0.45"/>
    <ellipse cx="7" cy="0" rx="5" ry="3" fill="#e8a0b0" opacity="0.45"/>
  </g>
  <g transform="translate(235,58)">
    <circle cx="0" cy="0" r="7" fill="#c97b8a" opacity="0.6"/>
    <circle cx="0" cy="0" r="3.5" fill="#f5c6c6" opacity="0.55"/>
  </g>

  <!-- Gold dot accents -->
  <circle cx="55" cy="235" r="2.5" fill="#c9a84c" opacity="0.5"/>
  <circle cx="95" cy="196" r="2" fill="#c9a84c" opacity="0.45"/>
  <circle cx="138" cy="155" r="2.5" fill="#c9a84c" opacity="0.5"/>
  <circle cx="172" cy="118" r="2" fill="#c9a84c" opacity="0.45"/>
  <circle cx="215" cy="75" r="2.5" fill="#c9a84c" opacity="0.5"/>
  <circle cx="252" cy="40" r="2" fill="#c9a84c" opacity="0.45"/>
</svg>
